<svg width="430" height="712" viewBox="0 0 430 712" fill="none" xmlns="http://www.w3.org/2000/svg">
<g opacity="0.7">
<path d="M119.917 52.8061C130.907 52.8061 144.656 48.5372 159.608 42.5495C169.365 38.6423 179.674 33.9854 190.099 29.2765C195.657 26.7663 201.247 24.2413 206.803 21.8073C222.803 14.798 238.541 8.5348 252.534 5.47549C266.541 2.41308 278.688 2.58679 287.594 8.30845C294.533 12.7661 299.211 20.0642 302.646 29.0305C306.08 37.9974 308.251 48.5772 310.212 59.5399C310.633 61.895 311.045 64.268 311.457 66.6458C312.962 75.3193 314.477 84.0566 316.513 92.2209C319.106 102.624 322.557 112.156 327.949 119.504C333.532 127.112 340.883 134.585 348.94 142.112C352.969 145.877 357.18 149.66 361.439 153.483L361.731 153.745C365.896 157.484 370.104 161.261 374.237 165.103C391.172 180.843 406.766 197.598 412.849 216.968C415.829 226.46 416.062 238.857 414.707 252.846C413.353 266.824 410.42 282.338 407.106 298.041C405.868 303.909 404.575 309.806 403.293 315.657C401.147 325.451 399.029 335.118 397.237 344.312C394.374 359 392.332 372.532 392.332 383.524C392.332 399.204 393.877 412.405 395.306 424.613C395.874 429.465 396.424 434.159 396.85 438.789C398.352 455.083 398.35 470.666 392.355 489.759C386.85 507.292 374.068 522.497 360.181 536.891C356.786 540.41 353.323 543.882 349.887 547.328C339.301 557.941 328.967 568.303 321.64 579.011C315.487 588.003 309.898 599.402 304.216 610.99C302.405 614.683 300.584 618.396 298.733 622.057C291.051 637.245 282.84 651.533 272.55 660.068C263.268 667.767 251.957 669.946 240.162 671.341C238.208 671.572 236.241 671.782 234.268 671.992C224.367 673.046 214.318 674.116 205.194 678.004C191.781 683.719 171.527 692.097 150.895 699.046C130.246 706 109.282 711.5 94.4249 711.5C79.6857 711.5 66.0318 701.604 52.6153 690.134C50.0785 687.966 47.548 685.739 45.0228 683.517C40.8998 679.89 36.7907 676.274 32.6911 672.943C26.072 667.565 19.4196 662.879 12.6464 659.993C-92.5931 615.148 -146.5 507.53 -146.5 359.396C-146.5 211.3 -70.6278 85.6438 34.6396 40.7874C47.8758 35.1472 61.6121 38.0838 75.8851 42.5064C78.4369 43.2971 81.0063 44.1357 83.5918 44.9796C95.4135 48.8379 107.572 52.8061 119.917 52.8061Z" stroke="#A2E3FF"/>
<path d="M62.1416 491.22C62.0298 492.498 61.9781 493.883 61.947 495.305L59.272 510.983C40.8421 526.537 14.9626 522.643 -9.17511 510.817C-20.2707 505.381 -31.5613 499.387 -39.5015 491.751C-47.4193 484.136 -51.9695 474.926 -49.6833 463.006C-48.4225 456.433 -44.3853 450.374 -40.0923 445.485C-36.1721 441.02 -32.0758 437.571 -29.7685 435.629C-29.5523 435.447 -29.3518 435.278 -29.1687 435.123C-27.8237 433.983 -26.5151 431.897 -25.1198 429.424C-24.6354 428.565 -24.1388 427.657 -23.6229 426.713C-22.6308 424.898 -21.5675 422.952 -20.383 420.982C-16.7851 414.999 -12.186 409.006 -5.56092 406.429C2.24754 403.392 8.4855 406.425 15.0503 410.131C15.5154 410.394 15.9822 410.66 16.4513 410.927C22.5578 414.407 29.0453 418.104 37.1929 417.217C40.2374 416.885 42.9185 415.674 45.3722 414.165C47.1069 413.098 48.7552 411.864 50.337 410.68C50.9796 410.198 51.6113 409.725 52.2333 409.275C54.4113 407.699 56.4845 406.39 58.6247 405.817C60.7357 405.252 62.9353 405.397 65.3975 406.789C66.9223 407.651 67.8054 408.638 68.2498 409.705C68.6957 410.775 68.7256 411.987 68.4296 413.344C67.8307 416.09 65.9423 419.259 63.8349 422.686C63.7241 422.867 63.6127 423.048 63.5009 423.229C61.5117 426.46 59.4055 429.881 58.2244 433.241C56.9719 436.803 56.7271 440.388 58.8273 443.655C61.469 447.765 65.441 449.013 69.2405 450.202L69.2531 450.206C73.0821 451.405 76.7366 452.55 79.2306 456.269C81.8324 460.149 82.5416 463.247 82.1286 465.853C81.714 468.469 80.1536 470.691 77.9993 472.786C76.3312 474.408 74.3493 475.915 72.3246 477.455C71.7258 477.911 71.1233 478.369 70.524 478.834C67.9212 480.853 65.3922 482.991 63.6666 485.502C62.7488 486.838 62.3438 488.911 62.1416 491.22ZM60.5981 509.156L61.7944 502.145C61.7253 503.593 61.6102 504.969 61.4051 506.207C61.2151 507.354 60.9527 508.347 60.5981 509.156Z" stroke="#B5FFC9"/>
<path d="M88.3857 401.549C91.5556 393.701 93.9586 387.752 86.3843 382.781C75.169 375.525 66.1324 385.763 53.0711 385.82C34.8269 386.188 23.9711 368.903 6.59969 374.123C-8.26963 378.526 -16.1433 394.387 -22.6488 398.795C-26.6859 401.128 -31.1165 409.733 -36.6905 415.873C-41.8721 421.495 -47.762 427.574 -49.6166 435.241C-56.435 463.414 -32.3021 483.519 -6.04774 499.095C22.1225 515.722 52.5263 521.728 75.7332 504.714C79.2309 502.249 81.9427 497.558 83.1171 491.42C84.2914 485.281 85.1784 477.467 87.215 473.875C94.3012 463.788 114.018 459.777 104.59 443.134C99.9128 434.222 88.9741 435.056 84.0704 426.045C80.0496 418.451 85.1171 409.299 88.3787 401.566L88.3857 401.549Z" stroke="#B4FECC"/>
<path d="M113.787 383.085C116.054 374.078 117.286 368.22 108.629 361.768C96.6224 352.99 85.3889 358.354 71.1321 357.072C51.9113 355.844 39.663 340 21.0745 344.078C4.97087 347.494 -5.36716 359.801 -13.3357 364.205C-19.3271 366.89 -24.1237 380.415 -31.0753 387.671C-37.1953 393.928 -44.8703 399.794 -47.3853 408.385C-56.7376 440.314 -32.3096 467.396 -2.38044 488.07C29.3209 509.826 63.7814 518.235 91.6521 500.49C96.3772 497.639 101.505 493.618 103.845 486.696C106.185 479.774 108.255 469.605 110.764 464.889C118.269 454.497 138.281 450.737 130.066 433.308C126.02 423.298 114.446 421.85 109.796 411.706C105.846 402.675 111.355 391.836 113.787 383.085Z" stroke="#B3FCCF"/>
<path d="M139.911 367.662C141.388 357.408 141.44 351.524 131.828 343.486C119.149 333.101 106.152 333.419 90.7984 330.688C70.7112 327.778 56.9191 313.205 37.1842 316.041C19.9077 318.367 7.42006 326.932 -2.02222 331.205C-10.0051 334.068 -15.6309 352.485 -24.0726 360.74C-31.199 367.555 -40.6489 373.057 -43.9128 382.526C-56.1574 418.028 -32.0292 452.145 1.15114 478.281C35.9613 505.518 74.3122 516.714 106.955 498.636C112.948 495.508 120.432 492.371 124.01 484.76C127.588 477.15 131.058 464.726 134.147 458.924C142.116 448.244 162.441 444.756 155.49 426.619C152.166 415.551 140.146 411.768 135.844 400.497C132.089 390.022 138.206 377.522 139.911 367.662Z" stroke="#B2FBD1"/>
<path d="M165.805 354.857C166.613 343.266 165.492 337.235 155.057 327.512C141.83 315.44 127.515 310.571 111.17 306.291C90.3329 301.616 74.8585 288.135 54.0542 289.632C35.6734 290.767 21.3626 295.427 10.4445 299.441C0.445004 302.302 -6.47102 325.553 -16.5073 334.682C-24.7031 341.974 -35.9074 346.961 -40.0058 357.255C-55.4891 396.123 -32.2595 437.291 3.72281 469.225C41.1948 502.268 83.2433 516.626 120.74 498.62C128.035 495.327 137.798 493.28 142.681 485.083C147.564 476.886 152.645 462.318 156.418 455.476C164.892 444.531 185.549 441.337 179.908 422.571C177.396 410.493 165.12 404.335 161.261 391.95C157.825 380.033 164.716 365.908 165.805 354.857Z" stroke="#B1FAD4"/>
<path d="M191.243 344.686C191.512 331.678 189.235 325.381 178.115 313.882C164.47 300.054 149.291 289.886 132.067 283.96C110.602 277.448 93.3202 264.869 71.5301 264.935C52.1202 264.784 36.323 265.394 23.9355 269.023C11.9066 271.701 3.24347 299.696 -8.48331 309.567C-17.8061 317.25 -30.7341 321.571 -35.7491 332.631C-54.8042 374.634 -33.0738 422.831 5.23778 460.866C44.9018 500.01 90.4287 517.891 132.834 500.371C141.455 497.026 153.41 496.272 159.657 487.594C165.904 478.916 172.798 462.331 177.358 454.503C186.379 443.319 207.382 440.443 203.094 421.132C201.478 408.096 189.142 399.536 185.82 386.055C182.829 372.705 190.655 357.004 191.243 344.686Z" stroke="#B0F8D6"/>
<path d="M216.027 337.142C215.891 322.646 212.484 315.962 200.821 302.607C186.896 286.961 171.312 271.414 153.329 263.754C131.363 255.338 112.163 243.463 89.4768 242.011C69.1193 240.483 52.1816 236.923 38.3397 240.04C24.2812 242.353 13.4201 274.969 -0.0842648 285.442C-10.5859 293.427 -25.1968 296.934 -31.2069 308.696C-54.1521 353.578 -34.5206 408.74 5.6259 453.151C46.9911 498.658 95.7519 520.411 143.091 503.793C153.057 500.513 167.1 501.247 174.764 492.198C182.428 483.149 191.331 464.689 196.775 455.934C206.382 444.539 227.746 442.008 224.848 422.237C224.211 408.302 212.01 397.325 209.318 382.773C206.898 368.01 215.818 350.794 216.027 337.142Z" stroke="#AFF7D9"/>
<path d="M239.965 332.195C239.564 316.148 235.061 308.962 223.006 293.678C208.94 276.162 193.419 255.187 174.802 245.713C152.466 235.335 131.252 223.956 107.765 220.905C86.5478 217.912 68.8228 210.087 53.5502 212.565C37.4742 214.331 23.9724 251.415 8.61282 262.345C-3.11341 270.537 -19.3566 273.085 -26.4361 285.478C-53.5732 332.962 -36.6371 394.985 4.83 446.012C47.3862 498.112 99.1121 524.07 151.384 508.774C162.704 505.677 178.719 508.088 187.845 498.782C196.972 489.476 208.067 469.295 214.49 459.681C224.722 448.107 246.46 445.948 244.984 425.806C245.404 411.036 233.536 397.64 231.565 382.049C229.84 365.898 240.009 347.239 239.965 332.195Z" stroke="#AEF6DB"/>
<path d="M244.519 287.094L244.505 287.074C230.443 267.644 215.452 241.224 196.332 229.862C173.763 217.473 150.453 206.375 126.267 201.651C104.284 197.112 86.131 184.948 69.46 186.661C51.391 187.7 34.8159 229.065 17.5331 240.302C4.54259 248.604 -13.2723 250.05 -21.4911 262.998C-53.1043 312.785 -39.4545 381.526 2.80129 439.374C46.0213 498.265 100.42 528.743 157.593 515.19C170.27 512.395 188.127 516.664 198.754 507.218C209.381 497.771 222.844 476.037 230.335 465.638C241.229 453.92 263.35 452.165 263.324 431.74C264.875 416.206 253.538 400.402 252.378 383.809C251.47 366.306 263.041 346.286 262.875 329.801C262.354 312.159 256.8 304.354 244.519 287.094Z" stroke="#ADF4DE"/>
<path d="M284.576 329.902C284.084 310.608 277.522 302.075 265.153 282.76C251.245 261.381 237.254 229.531 217.768 216.218C195.105 201.775 169.634 190.74 144.855 184.271C122.205 178.11 103.989 161.559 85.9603 162.384C65.9353 162.515 45.8661 207.948 26.6022 219.335C12.3143 227.646 -7.00214 227.851 -16.4252 241.274C-52.7799 293.045 -42.999 368.319 -0.502244 433.159C42.8391 499.003 99.5949 534.297 161.612 522.909C175.638 520.534 195.197 526.835 207.354 517.368C219.512 507.9 235.506 484.793 244.149 473.69C255.74 461.864 278.253 460.545 279.698 439.929C282.452 423.705 271.843 405.517 271.581 387.966C271.612 369.156 284.731 347.868 284.576 329.902Z" stroke="#ACF3E0"/>
<path d="M304.895 332.428C304.583 311.459 297.075 302.088 284.794 280.691C271.189 257.339 258.669 220.105 238.958 204.784C216.344 188.256 188.662 177.057 163.401 168.781C140.19 160.928 122.277 139.966 102.94 139.781C81.0084 138.826 57.0382 188.082 35.7457 199.458C20.1339 207.675 -0.604438 206.505 -11.2918 220.318C-52.6328 273.733 -47.2929 355.317 -5.11657 427.284C37.7908 500.206 96.5672 540.594 163.341 531.79C178.703 529.954 199.809 538.45 213.519 529.084C227.229 519.718 245.907 495.429 255.782 483.708C268.102 471.816 291.013 470.966 293.946 450.251C297.969 433.417 288.282 412.884 289.006 394.424C290.093 374.358 304.899 351.906 304.895 332.428Z" stroke="#ACF2E3"/>
<path d="M323.66 337.298C323.685 314.632 315.297 304.32 303.27 280.812C290.123 255.472 279.54 212.932 259.75 195.557C237.331 176.919 207.405 165.327 181.777 155.186C158.114 145.578 140.874 120.206 120.286 118.893C96.5095 116.676 68.2467 169.482 44.889 180.681C27.9335 188.699 5.86206 186.025 -6.1442 200.137C-52.695 254.839 -52.3552 342.472 -11.072 421.663C30.8352 501.752 91.2753 547.49 162.69 541.685C179.364 540.507 201.854 551.351 217.131 542.21C232.407 533.07 253.908 507.801 265.089 495.554C278.169 483.64 301.482 483.294 305.914 462.575C311.266 445.214 302.696 422.385 304.487 403.073C306.747 381.811 323.374 358.31 323.66 337.298Z" stroke="#ABF0E6"/>
<path d="M340.708 344.42C341.226 320.048 332.032 308.694 320.43 283.056C307.897 255.725 299.713 207.987 279.993 188.521C257.916 167.758 225.729 155.541 199.854 143.486C175.854 132.066 159.656 102.307 137.883 99.7512C112.335 96.1019 79.4058 152.155 53.957 163.011C35.6452 170.721 12.3383 166.418 -1.03576 180.736C-52.9971 236.352 -58.2013 329.733 -18.393 416.208C21.9391 503.516 83.6669 554.838 159.579 552.441C177.536 552.038 201.233 565.372 218.082 556.583C234.93 547.793 259.381 521.758 271.936 509.083C285.803 497.191 309.52 497.387 315.456 476.757C322.193 458.958 314.931 433.898 317.87 413.793C321.414 391.403 339.988 366.977 340.708 344.42Z" stroke="#AAEFE8"/>
<path d="M355.879 353.693C357.049 327.615 347.13 315.125 336.125 287.349C324.362 258.031 319.034 205.238 299.536 183.653C277.95 160.759 243.503 147.682 217.505 133.669C193.285 120.387 178.498 86.2927 155.613 82.382C128.38 77.1324 90.4292 136.106 62.8748 146.448C43.2011 153.741 18.7648 147.691 3.98005 162.117C-53.569 218.258 -64.8435 317.049 -27.0986 410.829C11.0771 505.369 73.6988 562.485 153.937 563.898C173.137 564.386 197.856 580.342 216.275 572.03C234.694 563.718 262.207 537.138 276.196 524.138C290.877 512.318 314.996 513.092 322.436 492.647C330.609 474.502 324.842 447.285 329.004 426.455C333.941 403.014 354.582 377.796 355.879 353.693Z" stroke="#A9EEEB"/>
<path d="M369.021 365.003C371.001 337.233 360.445 323.516 350.211 293.606C339.377 262.319 337.351 204.641 318.23 180.918C297.287 155.897 260.595 141.724 234.602 125.719C210.285 110.532 197.274 72.1762 173.359 66.8035C144.537 59.7914 101.23 121.332 71.5672 130.987C50.5332 137.754 25.0821 129.844 8.84981 144.276C-54.4393 200.539 -72.2904 304.368 -37.2023 405.433C-1.76831 507.181 61.3372 570.277 145.702 575.894C166.099 577.386 191.646 596.083 211.624 588.376C231.602 580.668 262.275 553.774 277.755 540.555C293.271 528.858 317.789 530.249 326.727 510.084C336.381 491.689 332.291 462.405 337.75 440.921C344.182 416.512 367 390.644 369.021 365.003Z" stroke="#A8ECED"/>
<path d="M379.986 378.23C382.937 348.789 371.838 333.763 362.549 301.735C352.801 268.503 354.516 206.144 335.929 180.275C315.779 153.14 276.878 137.635 251.018 119.61C226.73 102.482 215.856 59.9638 190.999 53.0266C160.697 44.0954 111.723 107.825 79.9596 116.619C57.5741 122.749 31.2306 112.875 13.5203 127.21C-55.6356 183.178 -80.5476 291.635 -48.7117 399.93C-16.6065 508.822 46.5578 578.056 134.823 588.259C156.363 590.867 182.533 612.413 204.052 605.436C225.57 598.459 259.487 571.489 276.505 558.164C292.875 546.643 317.785 548.69 328.21 528.9C339.384 510.355 337.149 479.104 343.973 457.044C352 431.757 377.097 405.389 379.986 378.23Z" stroke="#A7EBF0"/>
<path d="M388.635 393.241C392.716 362.165 381.176 345.752 373.006 311.632C364.501 276.493 370.381 209.684 352.487 181.671C333.281 152.444 292.221 135.373 266.628 115.308C242.498 96.2118 234.116 49.654 208.413 41.0551C176.751 30.0545 121.822 95.5727 87.9775 103.332C64.257 108.713 37.1506 96.7779 17.9387 110.908C-57.1845 166.154 -89.6175 278.798 -61.6287 394.224C-33.4389 510.159 29.3458 585.664 121.26 600.824C143.879 604.655 170.461 629.143 193.493 623.023C216.22 616.984 252.773 590.806 271.604 577.32L272.35 576.786C289.59 565.496 314.883 568.24 326.779 548.919C339.505 530.326 339.297 497.22 347.549 474.666C357.265 448.599 384.733 421.891 388.635 393.241Z" stroke="#A6EAF2"/>
<path d="M394.837 409.899C400.205 377.231 388.33 359.36 381.454 323.189C374.347 286.19 384.804 215.192 367.762 185.046C349.652 153.759 306.501 134.889 281.308 112.772C257.467 91.6876 251.926 41.2374 225.48 30.8851C192.589 17.6722 131.441 84.5563 95.5476 91.1062C70.5156 95.6286 42.7832 81.5423 22.0526 95.3583C-59.1111 149.446 -99.4987 265.802 -75.9498 388.224C-52.2588 511.058 9.69608 592.94 104.98 613.412C128.61 618.572 155.386 646.082 179.894 640.944C204.403 635.806 244.995 609.426 265.204 596.237C283.328 585.235 308.99 588.717 322.335 569.959C336.641 551.422 338.624 516.586 348.364 493.624C359.857 466.882 389.778 439.999 394.837 409.899Z" stroke="#A5E8F5"/>
<path d="M398.468 428.054C405.279 393.852 393.181 374.459 387.772 336.285C382.218 297.484 397.647 222.588 381.617 190.331C364.751 157.026 319.594 136.126 294.938 111.954C271.519 88.8688 269.158 34.6968 242.079 22.5055C208.098 6.94513 140.497 74.7526 102.597 79.92C76.2848 83.4734 48.0696 67.1548 25.8103 80.5456C-61.4392 133.03 -110.187 252.594 -91.6654 381.833C-73.0517 511.388 -12.3869 599.723 85.9634 625.849C110.528 632.437 137.271 663.035 163.213 659.003C189.154 654.97 233.146 629.267 254.993 616.328C274.009 605.672 300.026 609.932 314.791 591.829C330.697 573.456 335.03 537.026 346.312 513.747C359.663 486.44 392.11 459.555 398.468 428.054Z" stroke="#A4E7F7"/>
<path d="M399.413 447.55C407.82 411.881 395.617 390.911 391.844 350.797C387.994 310.26 408.774 231.782 393.915 197.446C378.442 162.174 331.381 139.021 307.398 112.797C284.536 87.7076 285.686 30.0072 258.09 15.8978C223.169 -2.13682 148.906 66.1329 109.055 69.7463C81.5006 72.2218 52.952 53.5985 29.1611 66.4512C-64.1914 116.881 -121.675 239.118 -108.761 374.96C-95.7948 511.016 -36.8887 605.851 64.2006 637.954C89.6147 646.068 116.096 679.806 143.418 677C170.74 674.193 218.15 649.427 241.652 636.863C261.567 626.613 287.921 631.692 304.073 614.336C321.593 596.236 328.424 558.357 341.297 534.857C356.582 507.102 391.615 480.393 399.413 447.55Z" stroke="#A3E6FA"/>
<path d="M397.567 468.225C407.719 431.168 395.533 408.571 393.564 366.59C391.567 324.396 418.056 242.68 404.526 206.307C390.593 169.127 341.744 143.501 318.574 115.239C296.405 88.1488 301.383 27.136 273.391 11.0363C237.69 -9.59043 156.587 58.6636 114.851 60.5535C86.1004 61.8439 57.3733 40.8526 32.055 53.0534C-67.3885 100.974 -133.95 225.321 -127.214 367.512C-120.457 509.81 -63.7854 611.163 39.6924 649.549C65.8653 659.28 91.8487 696.194 120.491 694.733C149.133 693.272 199.964 669.706 225.132 657.642C245.947 647.86 272.616 653.799 290.117 637.278C309.256 619.563 318.728 580.393 333.236 556.769C350.522 528.69 388.191 502.34 397.567 468.225Z" stroke="#A2E5FC"/>
</g>
</svg>
