<svg width="624" height="631" viewBox="0 0 624 631" fill="none" xmlns="http://www.w3.org/2000/svg">
<path d="M479.315 340.394C479.16 340.371 478.981 340.345 478.781 340.316C477.945 340.196 476.731 340.024 475.214 339.818C472.182 339.406 467.943 338.856 463.115 338.306C453.465 337.207 441.441 336.106 432 336.106C422.559 336.106 410.535 337.207 400.885 338.306C396.057 338.856 391.818 339.406 388.786 339.818C387.269 340.024 386.055 340.196 385.219 340.316C385.014 340.346 384.832 340.372 384.674 340.395C384.716 340.232 384.764 340.044 384.819 339.83C385.032 338.992 385.336 337.774 385.7 336.253C386.43 333.211 387.402 328.955 388.373 324.101C390.314 314.402 392.258 302.279 392.242 292.668C392.226 283.158 390.282 271.164 388.349 261.57C387.382 256.768 386.416 252.558 385.691 249.549C385.329 248.044 385.027 246.839 384.816 246.01C384.742 245.72 384.679 245.476 384.629 245.282C392.55 244.344 398.823 245.132 405.135 245.944L405.329 245.969C411.728 246.792 418.187 247.624 426.382 246.644C435.083 245.603 441.659 243.078 448.12 240.566L448.4 240.457C454.609 238.042 460.734 235.659 468.623 234.576C468.609 234.809 468.59 235.107 468.569 235.466C468.511 236.434 468.431 237.841 468.341 239.596C468.163 243.107 467.949 248.011 467.807 253.587C467.522 264.734 467.521 278.588 468.664 289.362C469.756 299.65 472.472 312.598 474.91 322.961C476.13 328.145 477.282 332.687 478.129 335.934C478.552 337.557 478.899 338.857 479.141 339.751C479.207 339.996 479.266 340.211 479.315 340.394Z" stroke="#FFC6AE"/>
<path d="M487.818 521.981L487.904 521.488L487.835 521.476L487.766 521.483L487.818 521.981ZM487.818 521.981C487.904 521.488 487.904 521.488 487.905 521.488L487.908 521.489L487.919 521.491L487.966 521.499C488.007 521.506 488.07 521.516 488.152 521.53C488.318 521.557 488.564 521.598 488.886 521.649C489.531 521.751 490.482 521.896 491.701 522.068C494.139 522.411 497.651 522.861 501.945 523.284C510.533 524.132 522.241 524.874 534.725 524.458C547.213 524.042 560.457 522.467 572.126 518.689C583.797 514.911 593.847 508.945 600.016 499.781C612.395 481.392 611.523 463.66 605.247 445.382C602.105 436.231 597.612 426.956 592.75 417.399C591.732 415.397 590.697 413.383 589.656 411.355C585.729 403.712 581.705 395.877 578.082 387.797C568.788 367.064 553.414 354.752 538.421 342.744C537.061 341.655 535.704 340.568 534.354 339.478C518.15 326.381 503.119 312.783 498.036 288.191C492.838 263.046 501.61 244.287 511.781 225.524C512.675 223.874 513.581 222.224 514.488 220.57C523.91 203.394 533.589 185.751 534.255 162.643C534.521 153.431 535.32 144.303 536.099 135.414C536.267 133.495 536.435 131.587 536.595 129.692C537.5 119.008 538.198 108.724 537.7 99.0635C536.707 79.7665 530.955 63.0057 512.583 50.6036C494.199 38.193 476.778 39.864 458.625 46.5605C450.064 49.7184 441.36 53.9872 432.321 58.4202C431.763 58.6941 431.203 58.9686 430.642 59.2435C421.009 63.9635 410.996 68.7978 400.419 72.58C381.29 79.4209 367.773 90.5198 354.716 101.241C352.723 102.878 350.74 104.506 348.749 106.109C333.731 118.202 318.309 128.82 294.698 130.602C267.166 132.68 248.724 116.527 230.554 100.612L230.073 100.191C211.699 84.0983 193.522 68.4141 166.302 71.3531C142.328 73.9417 118.738 78.8407 100.01 88.9768C81.3027 99.1018 67.4544 114.445 62.9046 137.964C60.5612 150.078 63.4265 159.392 69.2319 167.33C75.058 175.296 83.8505 181.884 93.3911 188.497C94.9421 189.572 96.5127 190.648 98.0928 191.73C106.208 197.288 114.572 203.015 121.795 209.708C130.434 217.713 137.478 227.131 140.565 239.358C147.483 266.759 143.336 288.446 135.725 310.078C133.047 317.687 129.936 325.302 126.73 333.151C125.385 336.443 124.023 339.777 122.669 343.168C118.084 354.657 113.579 366.84 110.089 380.436C105.856 396.931 99.1072 410.537 92.7412 423.371C90.5256 427.838 88.3564 432.211 86.3558 436.58C78.5999 453.518 73.3237 470.475 77.439 492.846C81.6369 515.666 99.8 539.274 116.995 557.225C125.582 566.188 133.906 573.719 140.084 579.01C143.172 581.655 145.724 583.739 147.502 585.161C148.391 585.872 149.087 586.418 149.561 586.786C149.797 586.97 149.978 587.109 150.1 587.202C150.143 587.235 150.178 587.262 150.206 587.283L150.322 587.314C150.461 587.351 150.668 587.407 150.941 587.478C151.487 587.621 152.294 587.83 153.338 588.093C155.426 588.619 158.46 589.36 162.245 590.222C169.815 591.945 180.385 594.15 192.385 596.077C216.403 599.933 246.082 602.663 268.9 598.221C291.704 593.782 307.152 583.927 322.445 573.247C323.912 572.223 325.377 571.191 326.847 570.156C340.708 560.395 355.018 550.318 375.043 543.428C396.268 536.125 424.457 530.639 447.32 526.981C458.755 525.151 468.866 523.776 476.117 522.86C479.743 522.401 482.655 522.057 484.66 521.828C485.663 521.713 486.439 521.627 486.965 521.57C487.228 521.541 487.428 521.519 487.562 521.505L487.715 521.489L487.753 521.485L487.763 521.484L487.765 521.483C487.766 521.483 487.766 521.483 487.818 521.981Z" stroke="#80C583"/>
<path d="M391.623 236.235C383.168 235.325 374.683 234.879 365.986 238.092C365.117 240.306 370.488 248.014 372.564 259.502C374.659 271.291 374.914 283.883 373.884 295.321C373.065 306.402 369.742 318.757 367.976 330.186C366.211 341.659 367.024 351.479 367.024 351.479C367.024 351.479 377.216 351.935 388.617 350.784C400.017 349.634 412.463 347.186 423.624 346.776C434.697 346.379 449.488 347.585 458.685 348.547C467.882 349.509 478.807 351.965 480.301 350.442C481.793 348.92 478.624 339.652 475.709 327.737C472.737 315.587 467.769 302.631 466.594 290.5C465.365 277.856 467.568 263.928 468.253 250.941C468.875 238.244 470.365 228.306 468.846 226.812C459.363 226.405 451.461 230.067 443.225 232.856C434.884 235.662 427.684 239.787 417.245 240.604C406.821 241.328 400.409 237.169 391.623 236.235Z" stroke="#F9C6AC"/>
<path d="M379.843 227.319C369.396 226.368 358.908 226.325 349.813 231.708C348.115 236.151 356.938 244.28 359.193 257.665C361.491 271.651 360.078 284.914 358.039 298.352C356.413 310.971 351.707 323.626 350.147 336.787C348.589 350.037 352.204 362.323 352.204 362.323C352.204 362.323 365.323 364.281 378.476 363.046C391.63 361.811 404.497 358.007 417.402 357.154C430.13 356.329 447.714 357.592 456.459 358.426C465.204 359.26 479.785 363.007 482.745 359.933C485.701 356.863 481.501 346.139 478.08 332.677C474.541 318.743 467.315 305.795 466.019 291.79C464.665 277.241 469.069 263.172 470.12 248.333C471.051 234.074 473.435 222.637 470.368 219.678C459.745 217.818 450.355 222.648 440.347 225.747C430.129 228.882 422.283 234.64 410.033 235.275C397.388 235.782 390.955 228.313 379.843 227.319Z" stroke="#F3C6AA"/>
<path d="M368.564 218.459C356.122 217.504 343.637 217.901 334.183 225.46C331.697 232.148 343.981 240.635 346.449 255.915C348.992 272.095 345.924 286.06 342.911 301.517C340.506 315.69 334.422 328.671 333.101 343.562C331.782 358.587 338.244 373.288 338.244 373.288C338.244 373.288 354.317 376.693 369.223 375.342C384.129 373.991 397.395 368.821 412.035 367.493C426.411 366.211 446.79 367.481 455.081 368.195C463.373 368.909 481.635 373.879 486.032 369.228C490.423 364.583 485.166 352.421 481.211 337.42C477.071 321.713 467.587 308.812 466.135 292.934C464.622 276.483 471.224 262.231 472.607 245.531C473.819 229.704 477.068 216.752 472.429 212.355C460.637 209.063 449.779 215.089 438.005 218.531C425.916 222.029 417.453 229.432 403.387 229.92C388.518 230.249 382.002 219.471 368.564 218.459Z" stroke="#EDC6A8"/>
<path d="M357.357 209.541C342.92 208.618 328.447 209.492 318.673 219.234C315.44 228.182 331.191 236.964 333.908 254.135C336.736 272.507 332.024 287.206 328.075 304.7C324.92 320.442 317.464 333.776 316.412 350.392C315.364 367.188 324.718 384.253 324.718 384.253C324.718 384.253 343.773 389.052 360.43 387.552C377.087 386.052 390.727 379.51 407.095 377.676C423.111 375.905 446.287 377.13 454.124 377.733C461.961 378.336 483.927 384.463 489.732 378.208C495.53 371.961 489.189 358.381 484.671 341.849C479.898 324.379 468.156 311.565 466.514 293.817C464.806 275.464 473.604 260.988 475.285 242.42C476.748 225.019 480.836 210.535 474.597 204.729C461.61 200.027 449.306 207.275 435.771 211.092C421.817 214.989 412.766 224.049 396.881 224.421C379.783 224.615 373.123 210.528 357.357 209.541Z" stroke="#E7C6A6"/>
<path d="M346.16 200.756C329.728 199.901 313.274 201.288 303.218 213.22C299.28 224.441 318.504 233.456 321.505 252.515C324.657 273.073 318.316 288.537 313.469 308.088C309.591 325.414 300.77 339.125 300.018 357.464C299.274 376.027 311.563 395.405 311.563 395.405C311.563 395.405 333.626 401.543 352.033 399.862C370.44 398.181 384.43 390.259 402.517 387.888C420.166 385.598 446.139 386.727 453.52 387.227C460.901 387.727 486.593 394.943 493.778 387.059C500.954 379.184 493.503 364.203 488.393 346.15C482.954 326.927 468.956 314.241 467.089 294.624C465.152 274.374 476.141 259.631 478.086 239.189C479.772 220.208 484.671 204.176 476.805 196.99C462.597 190.898 448.868 199.397 433.578 203.622C417.765 207.951 408.157 218.679 390.45 218.97C371.12 219.068 364.254 201.675 346.16 200.756Z" stroke="#E1C6A4"/>
<path d="M335.038 193.602C316.61 192.852 298.184 194.789 287.887 208.916C283.284 222.423 305.987 231.608 309.306 252.552C312.824 275.292 304.866 291.552 299.158 313.176C294.587 332.101 284.406 346.216 283.986 366.273C283.579 386.599 298.846 408.236 298.846 408.236C298.846 408.236 323.943 415.659 344.098 413.765C364.252 411.871 378.568 402.563 398.367 399.621C417.639 396.784 446.41 397.766 453.334 398.171C460.257 398.576 489.697 406.814 498.232 397.274C506.756 387.746 498.168 371.385 492.44 351.819C486.302 330.855 470.048 318.337 467.923 296.854C465.721 274.708 478.898 259.658 481.073 237.336C482.953 216.768 488.634 199.172 479.117 190.636C463.66 183.178 448.529 192.953 431.49 197.618C413.825 202.414 403.69 214.821 384.158 215.063C362.592 215.108 355.46 194.411 335.038 193.602Z" stroke="#DBC6A2"/>
<path d="M323.916 186.321C303.493 185.712 283.103 188.235 272.604 204.562C267.379 220.37 293.564 229.661 297.237 252.485C301.16 277.402 291.601 294.488 285.068 318.204C279.834 338.741 268.3 353.287 268.244 375.057C268.204 397.141 286.492 420.985 286.492 420.985C286.492 420.985 314.648 429.637 336.548 427.498C358.447 425.359 373.065 414.657 394.566 411.115C415.454 407.699 447.021 408.483 453.486 408.802C459.951 409.121 493.159 418.312 503.014 407.091C512.857 395.884 503.107 378.162 496.731 357.095C489.863 334.4 471.356 322.09 468.938 298.745C466.437 274.706 481.796 259.308 484.166 235.1C486.212 212.942 492.646 193.766 481.452 183.909C464.721 175.106 448.21 186.185 429.43 191.322C409.92 196.619 399.287 210.715 377.928 210.943C354.124 210.974 346.665 186.978 323.916 186.321Z" stroke="#D5C6A0"/>
<path d="M312.787 178.912C290.371 178.481 268.026 181.625 257.365 200.158C251.558 218.277 281.231 227.613 285.291 252.312C289.66 279.4 278.513 297.344 271.195 323.167C265.326 345.33 252.447 360.332 252.785 383.811C253.146 407.648 274.495 433.645 274.495 433.645C274.495 433.645 305.735 443.47 329.377 441.054C353.018 438.638 367.913 426.537 391.107 422.362C413.601 418.338 447.964 418.872 453.969 419.113C459.975 419.355 496.971 429.431 508.116 416.504C519.247 403.594 508.31 384.531 501.258 361.973C493.627 337.559 472.869 325.498 470.124 300.293C467.289 274.366 484.825 258.578 487.356 232.478C489.538 208.725 496.698 187.954 483.802 176.807C465.771 166.683 447.902 179.09 427.388 184.732C406.041 190.564 394.941 206.36 371.753 206.606C345.71 206.665 337.862 179.374 312.787 178.912Z" stroke="#CFC69E"/>
<path d="M301.647 171.374C277.24 171.157 252.951 174.959 242.166 195.701C235.821 216.145 268.982 225.461 273.465 252.029C278.319 281.283 265.601 300.114 257.535 328.062C251.06 351.864 236.843 367.348 237.607 392.53C238.4 418.114 262.852 446.209 262.852 446.209C262.852 446.209 297.2 457.153 322.58 454.427C347.96 451.702 363.108 438.195 387.984 433.357C412.076 428.695 449.231 428.929 454.776 429.101C460.322 429.273 501.125 440.166 513.529 425.509C525.918 410.871 513.767 390.488 506.013 366.448C497.587 340.327 474.582 328.555 471.475 301.496C468.271 273.684 487.978 257.466 490.636 229.47C492.925 204.117 500.782 181.736 486.16 169.329C466.803 157.907 447.599 171.668 425.359 177.847C402.184 184.248 390.646 201.753 365.628 202.051C337.344 202.18 329.047 171.598 301.647 171.374Z" stroke="#C8C69C"/>
<path d="M290.494 163.707C264.097 163.74 237.874 168.237 227.005 191.191C220.163 213.97 256.816 223.204 261.756 251.636C267.136 283.048 252.861 302.797 244.085 332.884C237.035 358.339 221.487 374.331 222.709 401.209C223.966 428.534 251.561 458.673 251.561 458.673C251.561 458.673 289.039 470.679 316.154 467.612C343.268 464.545 358.645 449.628 385.193 444.094C410.871 438.766 450.817 438.648 455.902 438.759C460.986 438.87 505.613 450.51 519.246 434.099C532.862 417.709 519.473 396.026 510.988 370.518C501.736 342.702 476.487 331.259 472.984 302.35C469.377 272.659 491.248 255.969 493.998 226.072C496.365 199.115 504.889 175.111 488.517 161.474C467.809 148.777 447.295 163.919 423.337 170.666C398.342 177.671 386.397 196.894 359.548 197.278C329.022 197.516 320.215 163.651 290.494 163.707Z" stroke="#C2C699"/>
<path d="M279.324 155.91C250.941 156.231 222.794 161.456 211.881 186.627C204.585 211.751 244.73 220.84 250.161 251.13C256.106 284.693 240.291 305.39 230.844 337.632C223.248 364.751 206.379 381.276 208.088 409.844C209.842 438.904 240.618 471.032 240.618 471.032C240.618 471.032 281.248 484.043 310.094 480.602C338.939 477.162 354.519 460.829 382.729 454.57C409.984 448.545 452.716 448.024 457.339 448.083C461.963 448.141 510.43 460.459 525.261 442.271C540.073 424.106 525.421 401.144 516.178 374.177C506.068 344.681 478.579 333.607 474.646 302.853C470.601 271.287 494.629 254.084 497.436 222.283C499.852 193.72 509.015 168.077 490.869 153.242C468.786 139.294 446.984 155.841 421.317 163.189C394.511 170.831 382.19 191.781 353.51 192.284C320.742 192.673 311.364 155.532 279.324 155.91Z" stroke="#BCC597"/>
<path d="M268.135 147.984C237.769 148.628 207.71 154.618 196.792 182.008C189.084 209.488 232.721 218.368 238.678 250.508C245.229 286.215 227.889 307.889 217.811 342.301C209.698 371.096 191.515 388.18 193.744 418.432C196.026 449.22 230.022 483.28 230.022 483.28C230.022 483.28 273.826 497.239 304.398 493.393C334.969 489.548 350.728 471.794 380.588 464.778C409.409 458.027 454.923 457.053 459.085 457.068C463.246 457.082 515.571 470.009 531.567 450.02C547.543 430.057 531.605 405.837 521.575 377.424C510.576 346.261 480.852 335.595 476.456 303.002C471.937 269.568 498.115 251.811 500.945 218.102C503.38 187.929 513.153 160.635 493.21 144.633C469.726 129.459 446.662 147.435 419.294 155.416C390.687 163.728 378.021 186.414 347.509 187.07C312.5 187.651 302.49 147.241 268.135 147.984Z" stroke="#B6C595"/>
<path d="M256.925 139.929C224.579 140.932 192.62 147.723 181.738 177.334C173.66 207.178 220.789 215.786 227.306 249.77C234.502 287.611 215.654 310.293 204.983 346.888C196.384 377.372 176.897 395.04 179.676 426.969C182.518 459.476 219.772 495.413 219.772 495.413C219.772 495.413 266.77 510.263 299.062 505.98C331.354 501.697 347.268 482.518 378.767 474.715C409.142 467.209 457.434 465.73 461.133 465.709C464.831 465.688 521.028 479.154 538.159 457.342C555.267 435.557 538.018 410.103 527.175 380.255C515.254 347.438 483.302 337.222 478.407 302.796C473.381 267.499 501.7 249.148 504.518 213.527C506.944 181.742 517.296 152.783 495.534 135.647C470.625 119.27 446.322 138.7 417.263 147.346C386.867 156.362 373.885 180.792 341.543 181.634C304.293 182.448 293.591 138.778 256.925 139.929Z" stroke="#B0C593"/>
<path d="M245.692 131.745C211.37 133.144 177.523 140.77 166.716 172.603C158.312 204.822 208.93 213.095 216.042 248.914C223.922 288.881 203.584 312.599 192.359 351.391C183.304 383.574 162.522 401.852 165.883 435.449C169.317 469.669 209.865 507.425 209.865 507.425C209.865 507.425 260.077 523.109 294.084 518.357C328.091 513.606 344.134 492.997 377.26 484.376C409.179 476.086 460.242 474.051 463.478 474.004C466.714 473.956 526.797 487.891 545.029 464.232C563.238 440.604 544.653 413.936 532.971 382.668C520.098 348.211 485.922 338.484 480.496 302.231C474.928 265.078 505.378 246.092 508.15 208.558C510.537 175.159 521.439 144.522 497.835 126.283C471.478 108.729 445.961 129.638 415.222 138.979C383.045 148.733 369.78 174.914 335.608 175.975C296.119 177.064 284.664 130.143 245.692 131.745Z" stroke="#AAC591"/>
<path d="M234.434 123.431C198.141 125.262 162.419 133.759 151.727 167.815C143.038 202.416 197.144 210.291 204.885 247.938C213.489 290.021 191.678 314.805 179.938 355.807C170.458 389.7 148.391 408.613 152.363 443.87C156.42 479.795 200.3 519.312 200.3 519.312C200.3 519.312 253.744 535.772 289.461 530.52C325.177 525.267 341.325 503.225 376.064 493.756C409.514 484.653 463.343 482.012 466.116 481.946C468.89 481.879 532.871 496.213 552.173 470.687C571.45 445.194 551.506 417.335 538.957 384.658C525.101 348.578 488.708 339.379 482.716 301.306C476.572 262.305 509.145 242.643 511.835 203.194C514.154 168.178 525.576 135.852 500.108 116.542C472.279 97.8362 445.574 120.247 413.164 130.316C379.219 140.84 365.7 168.779 329.7 170.094C287.975 171.498 275.706 121.337 234.434 123.431Z" stroke="#A4C58F"/>
<path d="M223.148 114.989C184.89 117.288 147.306 126.691 136.769 162.97C127.839 199.961 185.429 207.375 193.832 246.841C203.2 291.03 179.934 316.908 167.719 360.133C157.845 395.746 134.502 415.319 139.117 452.228C143.829 489.848 191.074 531.069 191.074 531.069C191.074 531.069 247.77 548.248 285.189 542.463C322.608 536.678 338.835 513.199 375.176 502.851C410.145 492.907 466.732 489.608 469.043 489.532C471.353 489.455 539.245 504.118 559.583 476.703C579.896 449.323 558.57 420.296 545.127 386.224C530.257 348.535 491.654 339.904 485.063 300.019C478.309 259.177 512.995 238.799 515.569 197.433C517.789 160.799 529.701 126.771 502.348 106.424C473.024 86.5918 445.155 110.527 411.087 121.355C375.384 132.684 361.644 162.387 323.818 163.99C279.858 165.75 266.716 112.361 223.148 114.989Z" stroke="#9EC58D"/>
<path d="M211.834 106.418C171.616 109.222 132.183 119.565 121.841 158.067C112.713 197.456 173.783 204.344 182.883 245.62C193.053 291.905 168.351 318.906 155.701 364.366C145.462 401.709 120.855 421.967 126.142 460.519C131.54 499.826 182.187 542.692 182.187 542.692C182.187 542.692 242.151 560.53 281.265 554.181C320.38 547.832 336.663 522.913 374.591 511.657C411.066 500.842 470.404 496.836 472.252 496.758C474.099 496.68 545.913 511.601 567.255 482.276C588.57 452.988 565.839 422.816 551.476 387.363C535.562 348.08 494.756 340.058 487.532 298.369C480.133 255.693 516.921 234.559 519.344 191.275C521.437 153.023 533.809 117.281 504.549 95.9286C473.708 74.9964 444.701 100.481 408.985 112.098C371.537 124.264 357.606 155.739 317.956 157.662C271.765 159.819 257.69 103.213 211.834 106.418Z" stroke="#98C58B"/>
<path d="M200.488 97.7187C158.317 101.063 117.05 112.381 106.942 153.106C97.6597 194.898 162.205 201.199 172.035 244.276C183.047 292.644 156.927 320.797 143.882 368.503C133.31 407.586 107.448 428.553 113.439 468.739C119.554 509.723 173.636 554.175 173.636 554.175C173.636 554.175 236.885 572.614 277.688 565.67C318.491 558.726 334.803 532.363 374.306 520.169C412.274 508.456 474.353 503.691 475.739 503.62C477.124 503.549 552.869 518.657 575.182 487.401C597.466 456.186 573.307 424.891 557.998 388.071C541.009 347.211 498.009 339.837 490.118 296.352C482.04 251.852 520.919 229.921 523.155 184.719C525.092 144.847 537.893 107.381 506.706 85.0571C474.325 63.051 444.207 90.1062 406.854 102.545C367.674 115.581 353.584 148.832 312.113 151.109C263.694 153.705 248.626 93.8953 200.488 97.7187Z" stroke="#92C589"/>
<path d="M189.11 88.8918C144.991 92.8128 101.906 105.14 92.0718 148.086C82.6781 192.288 150.692 197.939 161.286 242.805C173.179 293.246 145.66 322.579 132.26 372.541C121.387 413.374 94.2813 435.075 101.006 476.884C107.87 519.535 165.419 565.514 165.419 565.514C165.419 565.514 231.968 584.496 274.452 576.925C316.936 569.354 333.253 541.546 374.316 528.383C413.763 515.743 478.576 510.169 479.499 510.113C480.422 510.057 560.108 525.283 583.358 492.077C606.577 458.913 580.968 426.52 564.686 388.347C546.592 345.927 501.406 339.24 492.816 293.968C484.025 247.652 524.983 224.885 526.998 177.765C528.748 136.273 541.949 97.0716 508.815 73.8098C474.871 50.7561 443.668 79.4048 404.691 92.6954C363.791 106.634 349.573 141.668 306.284 144.332C255.643 147.408 239.521 84.4077 189.11 88.8918Z" stroke="#8CC587"/>
<path d="M177.698 79.9374C131.639 84.4709 86.7497 97.8417 77.2294 143.008C67.7677 189.625 139.244 194.561 150.635 241.207C163.448 293.708 134.55 324.249 120.835 376.479C109.691 419.068 81.3537 441.528 88.8426 484.951C96.4857 529.258 157.535 576.704 157.535 576.704C157.535 576.704 227.4 596.17 271.556 587.94C315.712 579.711 332.009 550.455 374.617 536.295C415.53 522.701 483.066 516.267 483.527 516.235C483.988 516.203 567.624 531.474 591.776 496.297C615.897 461.166 588.816 427.699 571.535 388.189C552.306 344.225 504.944 338.264 495.62 291.214C486.082 243.092 529.107 219.449 530.867 170.411C532.401 127.3 545.969 86.3528 510.869 62.1869C475.34 38.1126 443.08 68.3768 402.491 82.5501C359.885 97.4241 345.571 134.245 300.468 137.331C247.609 140.926 230.374 74.7507 177.698 79.9374Z" stroke="#86C585"/>
</svg>
