<svg width="231" height="84" viewBox="0 0 231 84" fill="none" xmlns="http://www.w3.org/2000/svg">
<path d="M34.568 35.12C33.8587 33.8133 32.832 32.824 31.488 32.152C30.1813 31.4427 28.632 31.088 26.84 31.088C23.7413 31.088 21.2587 32.1147 19.392 34.168C17.5253 36.184 16.592 38.8907 16.592 42.288C16.592 45.9093 17.5627 48.7467 19.504 50.8C21.4827 52.816 24.1893 53.824 27.624 53.824C29.976 53.824 31.9547 53.2267 33.56 52.032C35.2027 50.8373 36.3973 49.12 37.144 46.88H24.992V39.824H45.824V48.728C45.1147 51.1173 43.9013 53.3387 42.184 55.392C40.504 57.4453 38.3573 59.1067 35.744 60.376C33.1307 61.6453 30.1813 62.28 26.896 62.28C23.0133 62.28 19.5413 61.44 16.48 59.76C13.456 58.0427 11.0853 55.672 9.368 52.648C7.688 49.624 6.848 46.1707 6.848 42.288C6.848 38.4053 7.688 34.952 9.368 31.928C11.0853 28.8667 13.456 26.496 16.48 24.816C19.504 23.0987 22.9573 22.24 26.84 22.24C31.544 22.24 35.5013 23.3787 38.712 25.656C41.96 27.9333 44.1067 31.088 45.152 35.12H34.568ZM65.3523 62.448C62.2909 62.448 59.5283 61.7947 57.0643 60.488C54.6376 59.1813 52.7149 57.3147 51.2963 54.888C49.9149 52.4613 49.2243 49.624 49.2243 46.376C49.2243 43.1653 49.9336 40.3467 51.3522 37.92C52.7709 35.456 54.7123 33.5707 57.1763 32.264C59.6403 30.9573 62.4029 30.304 65.4643 30.304C68.5256 30.304 71.2883 30.9573 73.7523 32.264C76.2163 33.5707 78.1576 35.456 79.5763 37.92C80.9949 40.3467 81.7043 43.1653 81.7043 46.376C81.7043 49.5867 80.9763 52.424 79.5203 54.888C78.1016 57.3147 76.1416 59.1813 73.6403 60.488C71.1763 61.7947 68.4136 62.448 65.3523 62.448ZM65.3523 54.16C67.1816 54.16 68.7309 53.488 70.0003 52.144C71.3069 50.8 71.9603 48.8773 71.9603 46.376C71.9603 43.8747 71.3256 41.952 70.0563 40.608C68.8243 39.264 67.2936 38.592 65.4643 38.592C63.5976 38.592 62.0483 39.264 60.8163 40.608C59.5843 41.9147 58.9683 43.8373 58.9683 46.376C58.9683 48.8773 59.5656 50.8 60.7603 52.144C61.9923 53.488 63.5229 54.16 65.3523 54.16ZM112.377 22.688V30.36H96.3605V38.648H108.345V46.096H96.3605V62H86.7845V22.688H112.377ZM122.226 27.504C120.546 27.504 119.164 27.0187 118.082 26.048C117.036 25.04 116.514 23.808 116.514 22.352C116.514 20.8587 117.036 19.6267 118.082 18.656C119.164 17.648 120.546 17.144 122.226 17.144C123.868 17.144 125.212 17.648 126.258 18.656C127.34 19.6267 127.882 20.8587 127.882 22.352C127.882 23.808 127.34 25.04 126.258 26.048C125.212 27.0187 123.868 27.504 122.226 27.504ZM126.986 30.752V62H117.41V30.752H126.986ZM152.965 30.416C156.624 30.416 159.536 31.6107 161.701 34C163.904 36.352 165.005 39.6 165.005 43.744V62H155.485V45.032C155.485 42.9413 154.944 41.3173 153.861 40.16C152.778 39.0027 151.322 38.424 149.493 38.424C147.664 38.424 146.208 39.0027 145.125 40.16C144.042 41.3173 143.501 42.9413 143.501 45.032V62H133.925V30.752H143.501V34.896C144.472 33.5147 145.778 32.432 147.421 31.648C149.064 30.8267 150.912 30.416 152.965 30.416ZM169.756 46.32C169.756 43.1093 170.353 40.2907 171.548 37.864C172.78 35.4373 174.441 33.5707 176.532 32.264C178.622 30.9573 180.956 30.304 183.532 30.304C185.585 30.304 187.452 30.7333 189.132 31.592C190.849 32.4507 192.193 33.608 193.164 35.064V20.56H202.74V62H193.164V57.52C192.268 59.0133 190.98 60.208 189.3 61.104C187.657 62 185.734 62.448 183.532 62.448C180.956 62.448 178.622 61.7947 176.532 60.488C174.441 59.144 172.78 57.2587 171.548 54.832C170.353 52.368 169.756 49.5307 169.756 46.32ZM193.164 46.376C193.164 43.9867 192.492 42.1013 191.148 40.72C189.841 39.3387 188.236 38.648 186.332 38.648C184.428 38.648 182.804 39.3387 181.46 40.72C180.153 42.064 179.5 43.9307 179.5 46.32C179.5 48.7093 180.153 50.6133 181.46 52.032C182.804 53.4133 184.428 54.104 186.332 54.104C188.236 54.104 189.841 53.4133 191.148 52.032C192.492 50.6507 193.164 48.7653 193.164 46.376ZM219.243 35.96C220.363 34.2427 221.763 32.8987 223.443 31.928C225.123 30.92 226.99 30.416 229.043 30.416V40.552H226.411C224.022 40.552 222.23 41.0747 221.035 42.12C219.841 43.128 219.243 44.92 219.243 47.496V62H209.667V30.752H219.243V35.96Z" fill="#FFCFFD"/>
<path d="M29.568 35.12C28.8587 33.8133 27.832 32.824 26.488 32.152C25.1813 31.4427 23.632 31.088 21.84 31.088C18.7413 31.088 16.2587 32.1147 14.392 34.168C12.5253 36.184 11.592 38.8907 11.592 42.288C11.592 45.9093 12.5627 48.7467 14.504 50.8C16.4827 52.816 19.1893 53.824 22.624 53.824C24.976 53.824 26.9547 53.2267 28.56 52.032C30.2027 50.8373 31.3973 49.12 32.144 46.88H19.992V39.824H40.824V48.728C40.1147 51.1173 38.9013 53.3387 37.184 55.392C35.504 57.4453 33.3573 59.1067 30.744 60.376C28.1307 61.6453 25.1813 62.28 21.896 62.28C18.0133 62.28 14.5413 61.44 11.48 59.76C8.456 58.0427 6.08533 55.672 4.368 52.648C2.688 49.624 1.848 46.1707 1.848 42.288C1.848 38.4053 2.688 34.952 4.368 31.928C6.08533 28.8667 8.456 26.496 11.48 24.816C14.504 23.0987 17.9573 22.24 21.84 22.24C26.544 22.24 30.5013 23.3787 33.712 25.656C36.96 27.9333 39.1067 31.088 40.152 35.12H29.568ZM60.3523 62.448C57.2909 62.448 54.5283 61.7947 52.0643 60.488C49.6376 59.1813 47.7149 57.3147 46.2963 54.888C44.9149 52.4613 44.2243 49.624 44.2243 46.376C44.2243 43.1653 44.9336 40.3467 46.3522 37.92C47.7709 35.456 49.7123 33.5707 52.1763 32.264C54.6403 30.9573 57.4029 30.304 60.4643 30.304C63.5256 30.304 66.2883 30.9573 68.7523 32.264C71.2163 33.5707 73.1576 35.456 74.5763 37.92C75.9949 40.3467 76.7043 43.1653 76.7043 46.376C76.7043 49.5867 75.9763 52.424 74.5203 54.888C73.1016 57.3147 71.1416 59.1813 68.6403 60.488C66.1763 61.7947 63.4136 62.448 60.3523 62.448ZM60.3523 54.16C62.1816 54.16 63.7309 53.488 65.0003 52.144C66.3069 50.8 66.9603 48.8773 66.9603 46.376C66.9603 43.8747 66.3256 41.952 65.0563 40.608C63.8243 39.264 62.2936 38.592 60.4643 38.592C58.5976 38.592 57.0483 39.264 55.8163 40.608C54.5843 41.9147 53.9683 43.8373 53.9683 46.376C53.9683 48.8773 54.5656 50.8 55.7603 52.144C56.9923 53.488 58.5229 54.16 60.3523 54.16ZM107.377 22.688V30.36H91.3605V38.648H103.345V46.096H91.3605V62H81.7845V22.688H107.377ZM117.226 27.504C115.546 27.504 114.164 27.0187 113.082 26.048C112.036 25.04 111.514 23.808 111.514 22.352C111.514 20.8587 112.036 19.6267 113.082 18.656C114.164 17.648 115.546 17.144 117.226 17.144C118.868 17.144 120.212 17.648 121.258 18.656C122.34 19.6267 122.882 20.8587 122.882 22.352C122.882 23.808 122.34 25.04 121.258 26.048C120.212 27.0187 118.868 27.504 117.226 27.504ZM121.986 30.752V62H112.41V30.752H121.986ZM147.965 30.416C151.624 30.416 154.536 31.6107 156.701 34C158.904 36.352 160.005 39.6 160.005 43.744V62H150.485V45.032C150.485 42.9413 149.944 41.3173 148.861 40.16C147.778 39.0027 146.322 38.424 144.493 38.424C142.664 38.424 141.208 39.0027 140.125 40.16C139.042 41.3173 138.501 42.9413 138.501 45.032V62H128.925V30.752H138.501V34.896C139.472 33.5147 140.778 32.432 142.421 31.648C144.064 30.8267 145.912 30.416 147.965 30.416ZM164.756 46.32C164.756 43.1093 165.353 40.2907 166.548 37.864C167.78 35.4373 169.441 33.5707 171.532 32.264C173.622 30.9573 175.956 30.304 178.532 30.304C180.585 30.304 182.452 30.7333 184.132 31.592C185.849 32.4507 187.193 33.608 188.164 35.064V20.56H197.74V62H188.164V57.52C187.268 59.0133 185.98 60.208 184.3 61.104C182.657 62 180.734 62.448 178.532 62.448C175.956 62.448 173.622 61.7947 171.532 60.488C169.441 59.144 167.78 57.2587 166.548 54.832C165.353 52.368 164.756 49.5307 164.756 46.32ZM188.164 46.376C188.164 43.9867 187.492 42.1013 186.148 40.72C184.841 39.3387 183.236 38.648 181.332 38.648C179.428 38.648 177.804 39.3387 176.46 40.72C175.153 42.064 174.5 43.9307 174.5 46.32C174.5 48.7093 175.153 50.6133 176.46 52.032C177.804 53.4133 179.428 54.104 181.332 54.104C183.236 54.104 184.841 53.4133 186.148 52.032C187.492 50.6507 188.164 48.7653 188.164 46.376ZM214.243 35.96C215.363 34.2427 216.763 32.8987 218.443 31.928C220.123 30.92 221.99 30.416 224.043 30.416V40.552H221.411C219.022 40.552 217.23 41.0747 216.035 42.12C214.841 43.128 214.243 44.92 214.243 47.496V62H204.667V30.752H214.243V35.96Z" fill="#A67AA4"/>
</svg>
