<svg width="35" height="35" viewBox="0 0 35 35" fill="none" xmlns="http://www.w3.org/2000/svg">
<path d="M30.625 24.487V7.95632C30.625 7.63796 30.3035 7.42027 30.0079 7.53851L23.4684 10.1543C23.3806 10.1894 23.2839 10.196 23.1922 10.173L11.8078 7.32695C11.7161 7.30401 11.6194 7.31057 11.5316 7.3457L4.65787 10.0952C4.48703 10.1635 4.375 10.329 4.375 10.513V27.0437C4.375 27.362 4.69654 27.5797 4.99213 27.4615L11.5316 24.8457C11.6194 24.8106 11.7161 24.804 11.8078 24.8269L23.1922 27.673C23.2839 27.696 23.3806 27.6894 23.4684 27.6543L30.3421 24.9048C30.513 24.8365 30.625 24.671 30.625 24.487Z" stroke="#33363F" stroke-width="2" stroke-linejoin="round"/>
<path d="M23.3333 27.7083V10.2083" stroke="#33363F" stroke-width="2"/>
<path d="M11.6667 24.7917L11.6667 7.29166" stroke="#33363F" stroke-width="2"/>
</svg>
